<svg xmlns="http://www.w3.org/2000/svg" width="183" height="58" viewBox="0 0 183 58"><defs><style>.a{opacity:0.5;}.b{fill:#2a2526;}</style></defs><g class="a" transform="translate(-413.936 -320.159)"><g transform="translate(415.311 320.159)"><path class="b" d="M.4,0H3.9a.4.4,0,0,1,.4.4V3.577a.4.4,0,0,1-.4.4H.4a.4.4,0,0,1-.4-.4V.4A.4.4,0,0,1,.4,0Z" transform="translate(20.683 25.815)"/><path class="b" d="M.4,0H3.216a.4.4,0,0,1,.4.4V3.577a.4.4,0,0,1-.4.4H.4a.4.4,0,0,1-.4-.4V.4A.4.4,0,0,1,.4,0Z" transform="translate(36.793 1.349)"/><path class="b" d="M.4,0H3.186a.4.4,0,0,1,.4.4V3.577a.4.4,0,0,1-.4.4H.4a.4.4,0,0,1-.4-.4V.4A.4.4,0,0,1,.4,0Z" transform="translate(32.19 1.349)"/><path class="b" d="M.4,0H3.186a.4.4,0,0,1,.4.4V3.577a.4.4,0,0,1-.4.4H.4a.4.4,0,0,1-.4-.4V.4A.4.4,0,0,1,.4,0Z" transform="translate(45.908 1.349)"/><path class="b" d="M.4,0H3.216a.4.4,0,0,1,.4.4V3.577a.4.4,0,0,1-.4.4H.4a.4.4,0,0,1-.4-.4V.4A.4.4,0,0,1,.4,0Z" transform="translate(50.511 1.349)"/><path class="b" d="M521.908,345.047a5.2,5.2,0,0,0,.807-3.218V323.5q0-.337-.3-.337h-3.646q-.3,0-.3.337v16.715a2.146,2.146,0,0,1-.344,1.4,1.386,1.386,0,0,1-1.091.388h-1.852a1.715,1.715,0,0,1-1.285-.522,2.472,2.472,0,0,1-.568-1.635c0-.134,0-.275.015-.421s.015-.3.015-.455q0-3.842-1.8-5.745a6.319,6.319,0,0,0-4.823-1.9,6.4,6.4,0,0,0-4.883,1.8,7.237,7.237,0,0,0-1.707,5.173v.673a4,4,0,0,1-.613,2.394,1.619,1.619,0,0,1-1.24.64h-1.554a2.462,2.462,0,0,1-1.629-.489,1.824,1.824,0,0,1-.643-1.331v-7.954c0-.223-.1-.336-.3-.336h-3.646c-.2,0-.3.113-.3.336v7.348q0,.674-.03,1.129a1.882,1.882,0,0,1-.179.741.924.924,0,0,1-.448.421,2.2,2.2,0,0,1-.867.135,2.736,2.736,0,0,1-1.39-.354,1.59,1.59,0,0,1-.613-1.5v-5.493c0-.224-.1-.337-.3-.337h-3.646c-.2,0-.3.113-.3.337V339.6q0,.674-.045,1.129a1.885,1.885,0,0,1-.194.724.925.925,0,0,1-.493.405,2.562,2.562,0,0,1-.912.135,2.441,2.441,0,0,1-1.315-.371,1.571,1.571,0,0,1-.6-1.449v-5.527c0-.224-.1-.337-.3-.337h-3.646c-.2,0-.3.113-.3.337v5.055a4.615,4.615,0,0,1-.239,1.8q-.24.489-1.106.489h-2l-.015,0-.015,0h-.688a2.46,2.46,0,0,1-1.629-.489,1.824,1.824,0,0,1-.643-1.331v-7.954c0-.223-.1-.336-.3-.336h-3.591c-.2,0-.3.113-.3.336v7.011a6.66,6.66,0,0,1-.239,2.14q-.24.624-1.2.623h-1.853c-.018,0-.032,0-.049.005s-.034-.005-.054-.005H457.2a3.6,3.6,0,0,0-.493.034,6.366,6.366,0,0,0,1.662-2.073,6.118,6.118,0,0,0,.653-2.848,6.292,6.292,0,0,0-.462-2.494,4.776,4.776,0,0,0-1.327-1.8,6.062,6.062,0,0,0-2.087-1.112,9.9,9.9,0,0,0-5.488,0,6.051,6.051,0,0,0-2.088,1.112,4.775,4.775,0,0,0-1.327,1.8,6.8,6.8,0,0,0,.176,5.341A5.828,5.828,0,0,0,448.068,342h-4.616a2.46,2.46,0,0,1-1.629-.489,1.823,1.823,0,0,1-.643-1.331v-7.954c0-.223-.1-.336-.3-.336h-2.75c-.22,0-.474.012-.762.034s-.433.124-.433.3V339.3a5.983,5.983,0,0,1-.254,2.106q-.254.59-1.181.59h-.986a.6.6,0,0,0-.058.013c-.041,0-.078-.013-.121-.013h-.687a2.461,2.461,0,0,1-1.629-.489,1.824,1.824,0,0,1-.643-1.331V323.5c0-.225-.1-.337-.3-.337h-3.591c-.2,0-.3.112-.3.337v21.636a4.482,4.482,0,0,1-.867,3.033,3.032,3.032,0,0,1-2.391.977,3.664,3.664,0,0,1-1.24-.219,2.9,2.9,0,0,1-1.106-.725,3.664,3.664,0,0,1-.792-1.313,5.767,5.767,0,0,1-.3-1.989,9.147,9.147,0,0,1,.359-2.661,18.551,18.551,0,0,1,.777-2.123.478.478,0,0,0,.045-.253.246.246,0,0,0-.165-.185l-3.227-1.18q-.33-.1-.448.1a15.127,15.127,0,0,0-1.211,3.252,14.1,14.1,0,0,0-.433,3.421,9.855,9.855,0,0,0,.611,3.656,6.693,6.693,0,0,0,1.656,2.494,6.564,6.564,0,0,0,2.431,1.415,9.344,9.344,0,0,0,2.939.455,9.443,9.443,0,0,0,2.968-.455,6.3,6.3,0,0,0,2.4-1.415,6.628,6.628,0,0,0,1.6-2.46,10.034,10.034,0,0,0,.582-3.623v-.3a2.49,2.49,0,0,0,1.285.859,6.717,6.717,0,0,0,1.674.185c.02,0,.037-.006.057-.007s.039.007.063.007h2.391a7.746,7.746,0,0,0,2.511-.32,2.517,2.517,0,0,0,1.4-1.365,2.691,2.691,0,0,0,1.4,1.382,5.513,5.513,0,0,0,1.54.272,1.368,1.368,0,0,0,.3.031h4.334q.866,0,1.988-.1a4.809,4.809,0,0,0,2.107-.708,3.869,3.869,0,0,0,1.824.708,19.391,19.391,0,0,0,2.033.1h4.453c.019,0,.033,0,.051-.005s.034.005.052.005h3.079a8.634,8.634,0,0,0,2.568-.3,2.33,2.33,0,0,0,1.41-1.382,2.679,2.679,0,0,0,1.4,1.382,5.785,5.785,0,0,0,1.973.3l.013,0,.017,0h3.587a6.258,6.258,0,0,0,2.361-.354,2.382,2.382,0,0,0,1.255-1.432,3.149,3.149,0,0,0,1.136,1.3,3.429,3.429,0,0,0,1.913.489h1.166a5.912,5.912,0,0,0,2.316-.372,2.429,2.429,0,0,0,1.27-1.415,3.184,3.184,0,0,0,1.121,1.3,3.355,3.355,0,0,0,1.9.489h1.644a4.577,4.577,0,0,0,1.853-.354,2.394,2.394,0,0,0,1.225-1.331,2.69,2.69,0,0,0,1.4,1.382,5.788,5.788,0,0,0,1.973.3q.448,0,1.016-.051a5.345,5.345,0,0,0,1.151-.236,4.2,4.2,0,0,0,1.121-.556,2.766,2.766,0,0,0,.867-.977,4.727,4.727,0,0,0,2.231,1.6,9,9,0,0,0,2.919.455,8.784,8.784,0,0,0,2.98-.489,4.779,4.779,0,0,0,2.261-1.7,3.388,3.388,0,0,0,.843,1.062,3.7,3.7,0,0,0,1.02.59,4.181,4.181,0,0,0,1.106.253c.344.031.677.043,1,.045.015,0,.025.005.04.005h3.228A3.216,3.216,0,0,0,521.908,345.047Zm-67.792-5.089a5.444,5.444,0,0,1-1.713,1.466,5.448,5.448,0,0,1-1.715-1.466,3.923,3.923,0,0,1-.721-2.477,2.8,2.8,0,0,1,.736-2.157,2.46,2.46,0,0,1,3.383,0,2.763,2.763,0,0,1,.752,2.157A3.923,3.923,0,0,1,454.117,339.959Zm54.462,1.516a2.625,2.625,0,0,1-3.691,0,4.376,4.376,0,0,1-.613-2.679q0-3.4,2.451-3.4t2.451,3.4A4.465,4.465,0,0,1,508.579,341.475Z" transform="translate(-416.193 -323.159)"/><path class="b" d="M.4,0H3.784a.4.4,0,0,1,.4.4V22.516a.4.4,0,0,1-.4.4H.4a.4.4,0,0,1-.4-.4V.4A.4.4,0,0,1,.4,0Z" transform="translate(110.109)"/><path class="b" d="M582.089,348.2h10.73c.2,0,.3-.124.3-.372v-2.594c0-.248-.1-.371-.3-.371h-5.081a3.55,3.55,0,0,1-.762-1.028,3.26,3.26,0,0,1-.343-1.533,2.475,2.475,0,0,1,.552-1.7,1.813,1.813,0,0,1,1.42-.623,2.276,2.276,0,0,1,1.211.32,4.634,4.634,0,0,1,1.031.893.478.478,0,0,0,.224.118c.07.012.155-.04.254-.152l1.494-1.787a.4.4,0,0,0,0-.5,4.714,4.714,0,0,0-1.763-1.584,5.377,5.377,0,0,0-2.63-.64,5.454,5.454,0,0,0-2.346.472,4.858,4.858,0,0,0-1.659,1.247,5.068,5.068,0,0,0-.971,1.769,6.848,6.848,0,0,0-.314,2.073,6.119,6.119,0,0,0,.164,1.448,5.778,5.778,0,0,0,.433,1.214h-1.644c-.2,0-.3.123-.3.371v2.594Q581.79,348.2,582.089,348.2Z" transform="translate(-458.052 -325.282)"/><path class="b" d="M.4,0H3.788a.4.4,0,0,1,.4.4V22.516a.4.4,0,0,1-.4.4H.4a.4.4,0,0,1-.4-.4V.4A.4.4,0,0,1,.4,0Z" transform="translate(137.665)"/><path class="b" d="M608.848,354.508h1.375q3.167,0,4.483-1.837t1.315-5.678v-.539a2.351,2.351,0,0,0,1.225.927,5.849,5.849,0,0,0,1.7.219c.015,0,.028,0,.043-.005s.029.005.047.005h2.391a7.744,7.744,0,0,0,2.511-.32,2.518,2.518,0,0,0,1.4-1.365,2.69,2.69,0,0,0,1.4,1.382,5.562,5.562,0,0,0,1.572.275,1.3,1.3,0,0,0,.281.029h9.086a7.784,7.784,0,0,0,2.137-.27,3.191,3.191,0,0,0,1.584-1.028,5.212,5.212,0,0,0,.986-2.073,14.021,14.021,0,0,0,.344-3.437,12.255,12.255,0,0,0-.374-3.067,6.875,6.875,0,0,0-1.211-2.527,5.934,5.934,0,0,0-2.181-1.719,7.528,7.528,0,0,0-3.258-.64,6.687,6.687,0,0,0-3.377.775,9.942,9.942,0,0,0-2.392,1.921q-.178.2.09.505l1.763,2.393a.257.257,0,0,0,.419-.034,6.156,6.156,0,0,1,1.375-1.062,3.41,3.41,0,0,1,1.7-.421,2.985,2.985,0,0,1,1.45.32,2.705,2.705,0,0,1,.941.843,3.4,3.4,0,0,1,.508,1.179,6.161,6.161,0,0,1,.15,1.366,8.007,8.007,0,0,1-.1,1.432,2.128,2.128,0,0,1-.359.893,1.238,1.238,0,0,1-.7.454,4.681,4.681,0,0,1-1.166.119h-7.98a2.459,2.459,0,0,1-1.629-.489,1.824,1.824,0,0,1-.643-1.331v-7.954c0-.223-.1-.336-.3-.336h-2.75c-.22,0-.474.012-.762.034s-.434.124-.434.3v7.078a5.983,5.983,0,0,1-.254,2.106q-.254.59-1.181.59H619.1a.468.468,0,0,0-.049.011c-.034,0-.065-.011-.1-.011h-.658a2.46,2.46,0,0,1-1.629-.489,1.824,1.824,0,0,1-.642-1.331v-7.954c0-.223-.1-.336-.3-.336h-3.646c-.2,0-.3.113-.3.336v12.335q0,1.045-.06,1.854a4.584,4.584,0,0,1-.284,1.364,1.728,1.728,0,0,1-.673.843,2.323,2.323,0,0,1-1.255.287h-.657q-.3,0-.3.337v3.4C608.549,354.4,608.648,354.508,608.848,354.508Z" transform="translate(-464.817 -324.683)"/><path class="b" d="M.4,0H3.9a.4.4,0,0,1,.4.4V3.577a.4.4,0,0,1-.4.4H.4a.4.4,0,0,1-.4-.4V.4A.4.4,0,0,1,.4,0Z" transform="translate(156.644 25.815)"/><path class="b" d="M.4,0H3.9a.4.4,0,0,1,.4.4V3.577a.4.4,0,0,1-.4.4H.4a.4.4,0,0,1-.4-.4V.4A.4.4,0,0,1,.4,0Z" transform="translate(168.749 1.382)"/></g><g transform="translate(413.936 359.479)"><path class="b" d="M413.936,392.943h3.047V385.5h6.083v-2.717h-6.083v-5.41h7.208v-2.7H413.936Z" transform="translate(-413.936 -374.467)"/><path class="b" d="M440.982,385.613a6.609,6.609,0,0,1-.253,1.9,4.175,4.175,0,0,1-.731,1.441,3.3,3.3,0,0,1-1.169.923,3.918,3.918,0,0,1-3.137,0,3.232,3.232,0,0,1-1.164-.929,4.314,4.314,0,0,1-.725-1.447,6.613,6.613,0,0,1-.253-1.9V374.668h-3.026v10.945a9.382,9.382,0,0,0,.467,3.014,7.009,7.009,0,0,0,1.338,2.389,6.065,6.065,0,0,0,2.119,1.567,7.3,7.3,0,0,0,5.622,0,6.123,6.123,0,0,0,2.125-1.567,6.975,6.975,0,0,0,1.344-2.389,9.381,9.381,0,0,0,.466-3.014V374.668h-3.025Z" transform="translate(-418.089 -374.467)"/><path class="b" d="M450.79,377.462H455.7v15.482h3.025V377.462h4.891v-2.793H450.79Z" transform="translate(-423.163 -374.467)"/><path class="b" d="M480.672,385.613a6.614,6.614,0,0,1-.253,1.9,4.177,4.177,0,0,1-.731,1.441,3.3,3.3,0,0,1-1.169.923,3.918,3.918,0,0,1-3.137,0,3.229,3.229,0,0,1-1.163-.929,4.314,4.314,0,0,1-.726-1.447,6.611,6.611,0,0,1-.253-1.9V374.668h-3.025v10.945a9.38,9.38,0,0,0,.466,3.014,7.023,7.023,0,0,0,1.338,2.389,6.067,6.067,0,0,0,2.12,1.567,7.3,7.3,0,0,0,5.622,0,6.122,6.122,0,0,0,2.125-1.567,6.971,6.971,0,0,0,1.343-2.389,9.379,9.379,0,0,0,.467-3.014V374.668h-3.025Z" transform="translate(-428.027 -374.467)"/><path class="b" d="M500.079,385.145a5.622,5.622,0,0,0,1.524-.808,4.989,4.989,0,0,0,1.124-1.176,5.287,5.287,0,0,0,.7-1.491,6.5,6.5,0,0,0-.113-3.874,4.162,4.162,0,0,0-1.113-1.661,5.225,5.225,0,0,0-1.945-1.081,9.3,9.3,0,0,0-2.85-.386h-4.959v18.275h3.024V385.8h1.294a1.329,1.329,0,0,1,.68.139,1.283,1.283,0,0,1,.422.467l3.418,5.852a1.442,1.442,0,0,0,.466.5,1.212,1.212,0,0,0,.669.177h2.72l-4.07-6.748A3.18,3.18,0,0,0,500.079,385.145Zm-1.231-2.022a4.207,4.207,0,0,1-1.49.24h-1.89V377.3H497.4a3.588,3.588,0,0,1,2.49.746,2.748,2.748,0,0,1,.816,2.135,3.883,3.883,0,0,1-.2,1.277,2.7,2.7,0,0,1-.613,1.005A2.827,2.827,0,0,1,498.848,383.123Z" transform="translate(-433.592 -374.467)"/><path class="b" d="M511.959,392.943h10.255v-2.717h-7.208v-5.169h5.679v-2.616h-5.679v-5.068h7.208v-2.7H511.959Z" transform="translate(-438.478 -374.467)"/><path class="b" d="M534.924,392.943h10.255v-2.717h-7.208v-5.169h5.679v-2.616h-5.679v-5.068h7.208v-2.7H534.924Z" transform="translate(-444.228 -374.467)"/><path class="b" d="M564.943,374.668h-2.9a.732.732,0,0,0-.641.468l-3.385,6c-.06.11-.112.217-.158.322s-.086.213-.124.323l-3.7-6.711a.813.813,0,0,0-.253-.309.838.838,0,0,0-.456-.1h-3.014l5.184,8.872-5.409,9.4h2.834a.6.6,0,0,0,.45-.183,1.949,1.949,0,0,0,.3-.4l3.609-6.47c.038-.076.075-.158.113-.246a2.693,2.693,0,0,0,.1-.285l3.767,7a1.6,1.6,0,0,0,.31.4.679.679,0,0,0,.489.177h3.025L559.7,383.4Z" transform="translate(-448.025 -374.467)"/><path class="b" d="M582.69,376.3a5.286,5.286,0,0,0-1.968-1.2,8.327,8.327,0,0,0-2.822-.43h-5.3v18.275h3.025v-6.432H577.9a7.851,7.851,0,0,0,2.766-.443,5.355,5.355,0,0,0,1.968-1.238,5.091,5.091,0,0,0,1.181-1.9,7.676,7.676,0,0,0,.023-4.784A4.748,4.748,0,0,0,582.69,376.3Zm-1.709,5.593a2.794,2.794,0,0,1-.607,1.061,2.648,2.648,0,0,1-1.023.671,4.094,4.094,0,0,1-1.45.233h-2.271V377.3H577.9a4.308,4.308,0,0,1,1.45.221,2.551,2.551,0,0,1,1.63,1.65,4.1,4.1,0,0,1,.2,1.326A4.528,4.528,0,0,1,580.981,381.892Z" transform="translate(-453.662 -374.467)"/><path class="b" d="M591.219,392.943h10.255v-2.717h-7.208v-5.169h5.679v-2.616h-5.679v-5.068h7.208v-2.7H591.219Z" transform="translate(-458.323 -374.467)"/><path class="b" d="M616.163,385.145a5.618,5.618,0,0,0,1.524-.808,4.988,4.988,0,0,0,1.125-1.176,5.285,5.285,0,0,0,.7-1.491,6.5,6.5,0,0,0-.112-3.874,4.165,4.165,0,0,0-1.113-1.661,5.226,5.226,0,0,0-1.945-1.081,9.305,9.305,0,0,0-2.85-.386h-4.959v18.275h3.024V385.8h1.294a1.328,1.328,0,0,1,.68.139,1.283,1.283,0,0,1,.422.467l3.418,5.852a1.442,1.442,0,0,0,.466.5,1.211,1.211,0,0,0,.669.177h2.721l-4.07-6.748A3.178,3.178,0,0,0,616.163,385.145Zm-1.231-2.022a4.209,4.209,0,0,1-1.49.24h-1.889V377.3h1.935a3.588,3.588,0,0,1,2.49.746,2.748,2.748,0,0,1,.816,2.135,3.879,3.879,0,0,1-.2,1.277,2.7,2.7,0,0,1-.613,1.005A2.826,2.826,0,0,1,614.932,383.123Z" transform="translate(-462.657 -374.467)"/><path class="b" d="M625.374,377.462h4.914v15.482h3.025V377.462H638.2v-2.793h-12.83Z" transform="translate(-466.875 -374.467)"/><path class="b" d="M654.069,385.248a4.15,4.15,0,0,0-.85-1.346,4.78,4.78,0,0,0-1.2-.911,12.453,12.453,0,0,0-1.377-.632q-.7-.272-1.378-.511a7.394,7.394,0,0,1-1.2-.543,2.743,2.743,0,0,1-.848-.733,1.747,1.747,0,0,1-.321-1.074,2.649,2.649,0,0,1,.157-.929,1.9,1.9,0,0,1,.479-.726,2.239,2.239,0,0,1,.787-.474,3.191,3.191,0,0,1,1.1-.171,3.378,3.378,0,0,1,1.209.2,5.076,5.076,0,0,1,.893.436q.382.24.664.436a.913.913,0,0,0,.505.2.669.669,0,0,0,.389-.114.933.933,0,0,0,.286-.392l.742-1.606a5.927,5.927,0,0,0-2.069-1.415,6.837,6.837,0,0,0-2.654-.505,5.478,5.478,0,0,0-2.259.442,4.982,4.982,0,0,0-2.7,2.856,5.52,5.52,0,0,0-.354,1.946,6.023,6.023,0,0,0,.321,2.1,4.256,4.256,0,0,0,.848,1.421,4.485,4.485,0,0,0,1.2.923,11.107,11.107,0,0,0,1.372.606q.7.253,1.372.468a5.994,5.994,0,0,1,1.2.525,2.671,2.671,0,0,1,.849.764,2,2,0,0,1,.32,1.176,2.63,2.63,0,0,1-.708,1.977,2.75,2.75,0,0,1-2,.69,3.64,3.64,0,0,1-1.445-.259,5.672,5.672,0,0,1-1.046-.575q-.444-.316-.771-.575a1,1,0,0,0-.607-.26.665.665,0,0,0-.387.12,1.174,1.174,0,0,0-.3.3l-.877,1.63a6.554,6.554,0,0,0,1.074.986,7.249,7.249,0,0,0,1.293.758,7.341,7.341,0,0,0,1.445.486,6.859,6.859,0,0,0,1.529.172,5.878,5.878,0,0,0,2.395-.462,5.15,5.15,0,0,0,1.771-1.264,5.447,5.447,0,0,0,1.1-1.884,6.986,6.986,0,0,0,.376-2.319A5.183,5.183,0,0,0,654.069,385.248Z" transform="translate(-471.389 -374.429)"/></g></g></svg>