<svg xmlns="http://www.w3.org/2000/svg" width="133.333" height="40" viewBox="0 0 133.333 40"><defs><style>.a{fill:#0a46e9;}</style></defs><g transform="translate(-413.936 -323.159)"><g transform="translate(414.936 323.159)"><path class="a" d="M.4,0H2.736a.4.4,0,0,1,.4.4V2.492a.4.4,0,0,1-.4.4H.4a.4.4,0,0,1-.4-.4V.4A.4.4,0,0,1,.4,0Z" transform="translate(15.07 18.775)"/><path class="a" d="M.4,0H2.235a.4.4,0,0,1,.4.4V2.492a.4.4,0,0,1-.4.4H.4a.4.4,0,0,1-.4-.4V.4A.4.4,0,0,1,.4,0Z" transform="translate(26.809 0.981)"/><path class="a" d="M.4,0H2.213a.4.4,0,0,1,.4.4V2.493a.4.4,0,0,1-.4.4H.4a.4.4,0,0,1-.4-.4V.4A.4.4,0,0,1,.4,0Z" transform="translate(23.455 0.981)"/><path class="a" d="M.4,0H2.213a.4.4,0,0,1,.4.4V2.493a.4.4,0,0,1-.4.4H.4a.4.4,0,0,1-.4-.4V.4A.4.4,0,0,1,.4,0Z" transform="translate(33.45 0.981)"/><path class="a" d="M.4,0H2.235a.4.4,0,0,1,.4.4V2.493a.4.4,0,0,1-.4.4H.4a.4.4,0,0,1-.4-.4V.4A.4.4,0,0,1,.4,0Z" transform="translate(36.804 0.981)"/><path class="a" d="M493.221,339.078a3.775,3.775,0,0,0,.588-2.341V323.4q0-.245-.217-.245h-2.657q-.218,0-.218.245v12.157a1.559,1.559,0,0,1-.25,1.017,1.011,1.011,0,0,1-.795.282h-1.35a1.251,1.251,0,0,1-.936-.38,1.8,1.8,0,0,1-.414-1.189c0-.1,0-.2.011-.306s.011-.216.011-.331a5.884,5.884,0,0,0-1.309-4.178,4.608,4.608,0,0,0-3.514-1.385,4.671,4.671,0,0,0-3.558,1.311,5.257,5.257,0,0,0-1.244,3.762v.49a2.9,2.9,0,0,1-.446,1.741,1.18,1.18,0,0,1-.9.466h-1.132a1.8,1.8,0,0,1-1.187-.355,1.325,1.325,0,0,1-.468-.968v-5.785c0-.162-.073-.244-.218-.244h-2.657c-.145,0-.218.082-.218.244V335.1q0,.49-.022.821a1.366,1.366,0,0,1-.131.539.673.673,0,0,1-.327.306,1.6,1.6,0,0,1-.632.1,2,2,0,0,1-1.013-.257,1.156,1.156,0,0,1-.446-1.091v-4c0-.163-.073-.245-.218-.245h-2.657c-.145,0-.218.082-.218.245v3.6q0,.49-.033.821a1.37,1.37,0,0,1-.142.526.673.673,0,0,1-.359.295,1.87,1.87,0,0,1-.664.1,1.781,1.781,0,0,1-.958-.27,1.142,1.142,0,0,1-.436-1.054v-4.02c0-.163-.072-.245-.218-.245h-2.657c-.145,0-.218.082-.218.245v3.676a3.351,3.351,0,0,1-.174,1.311q-.175.356-.806.355h-1.982a1.8,1.8,0,0,1-1.187-.355,1.326,1.326,0,0,1-.468-.968v-5.785c0-.162-.072-.244-.216-.244h-2.617c-.144,0-.216.082-.216.244v5.1a4.835,4.835,0,0,1-.174,1.556q-.175.454-.871.453h-1.35c-.013,0-.023,0-.036,0s-.025,0-.039,0h-2.58a2.632,2.632,0,0,0-.359.024,4.631,4.631,0,0,0,1.211-1.507,4.443,4.443,0,0,0,.476-2.071,4.568,4.568,0,0,0-.337-1.814,3.474,3.474,0,0,0-.967-1.311,4.419,4.419,0,0,0-1.521-.809,7.23,7.23,0,0,0-4,0,4.411,4.411,0,0,0-1.521.809,3.473,3.473,0,0,0-.967,1.311,4.937,4.937,0,0,0,.128,3.885,4.24,4.24,0,0,0,1.2,1.483h-3.364a1.8,1.8,0,0,1-1.187-.355,1.325,1.325,0,0,1-.468-.968v-5.785c0-.162-.073-.244-.218-.244h-2c-.16,0-.345.009-.555.025s-.316.09-.316.22V334.9a4.344,4.344,0,0,1-.185,1.532q-.185.429-.86.429h-.719c-.016,0-.028.008-.042.009-.03,0-.057-.009-.088-.009h-.5a1.8,1.8,0,0,1-1.187-.355,1.326,1.326,0,0,1-.468-.968V323.4c0-.164-.072-.245-.216-.245h-2.617c-.145,0-.216.082-.216.245v15.735a3.256,3.256,0,0,1-.632,2.206,2.212,2.212,0,0,1-1.742.711,2.675,2.675,0,0,1-.9-.159,2.112,2.112,0,0,1-.806-.528,2.664,2.664,0,0,1-.577-.955,4.187,4.187,0,0,1-.218-1.447,6.64,6.64,0,0,1,.261-1.936,13.475,13.475,0,0,1,.566-1.544.347.347,0,0,0,.033-.184.179.179,0,0,0-.12-.135l-2.352-.858q-.24-.074-.327.073a10.993,10.993,0,0,0-.883,2.365,10.238,10.238,0,0,0-.315,2.488,7.155,7.155,0,0,0,.445,2.659,4.867,4.867,0,0,0,1.206,1.814,4.785,4.785,0,0,0,1.771,1.029,6.821,6.821,0,0,0,2.141.331,6.893,6.893,0,0,0,2.163-.331,4.588,4.588,0,0,0,1.749-1.029,4.82,4.82,0,0,0,1.163-1.789,7.285,7.285,0,0,0,.424-2.635v-.221a1.814,1.814,0,0,0,.936.625,4.9,4.9,0,0,0,1.22.135c.015,0,.027,0,.041,0s.028,0,.046,0h1.742a5.654,5.654,0,0,0,1.829-.233,1.833,1.833,0,0,0,1.024-.993,1.959,1.959,0,0,0,1.024,1,4.023,4.023,0,0,0,1.122.2,1,1,0,0,0,.216.023h3.158q.631,0,1.449-.073a3.508,3.508,0,0,0,1.535-.515,2.823,2.823,0,0,0,1.329.515,14.162,14.162,0,0,0,1.481.073h3.245c.014,0,.024,0,.037,0s.025,0,.038,0h2.243a6.3,6.3,0,0,0,1.871-.221,1.7,1.7,0,0,0,1.027-1,1.95,1.95,0,0,0,1.021,1,4.222,4.222,0,0,0,1.437.221h2.635a4.568,4.568,0,0,0,1.72-.257,1.733,1.733,0,0,0,.915-1.042,2.291,2.291,0,0,0,.828.944,2.5,2.5,0,0,0,1.394.355h.849a4.314,4.314,0,0,0,1.688-.27,1.768,1.768,0,0,0,.926-1.029,2.317,2.317,0,0,0,.817.944,2.448,2.448,0,0,0,1.383.355h1.2a3.34,3.34,0,0,0,1.35-.257,1.742,1.742,0,0,0,.893-.968,1.959,1.959,0,0,0,1.024,1,4.224,4.224,0,0,0,1.437.221q.327,0,.74-.037a3.9,3.9,0,0,0,.838-.172,3.061,3.061,0,0,0,.817-.4,2.013,2.013,0,0,0,.632-.711,3.444,3.444,0,0,0,1.626,1.164,6.572,6.572,0,0,0,2.127.331,6.411,6.411,0,0,0,2.171-.355,3.482,3.482,0,0,0,1.647-1.238,2.466,2.466,0,0,0,.614.772,2.694,2.694,0,0,0,.743.429,3.051,3.051,0,0,0,.806.184c.25.023.493.031.732.033.011,0,.019,0,.029,0h2.352A2.346,2.346,0,0,0,493.221,339.078Zm-49.4-3.7a1.265,1.265,0,0,1-2.5,0,2.849,2.849,0,0,1-.525-1.8,2.032,2.032,0,0,1,.536-1.569,1.795,1.795,0,0,1,2.465,0,2.007,2.007,0,0,1,.548,1.569A2.849,2.849,0,0,1,443.826,335.377Zm39.683,1.1a1.915,1.915,0,0,1-2.69,0,3.178,3.178,0,0,1-.446-1.948q0-2.475,1.786-2.475t1.786,2.475A3.243,3.243,0,0,1,483.508,336.48Z" transform="translate(-416.193 -323.159)"/><path class="a" d="M.4,0H2.649a.4.4,0,0,1,.4.4V16.266a.4.4,0,0,1-.4.4H.4a.4.4,0,0,1-.4-.4V.4A.4.4,0,0,1,.4,0Z" transform="translate(80.229)"/><path class="a" d="M582.008,345.046h7.818c.145,0,.218-.09.218-.27v-1.887c0-.18-.073-.27-.218-.27h-3.7a2.582,2.582,0,0,1-.555-.748,2.367,2.367,0,0,1-.25-1.115,1.8,1.8,0,0,1,.4-1.238,1.322,1.322,0,0,1,1.034-.453,1.661,1.661,0,0,1,.882.233,3.374,3.374,0,0,1,.751.649.349.349,0,0,0,.163.086c.051.009.113-.029.185-.11l1.089-1.3a.288.288,0,0,0,0-.367,3.432,3.432,0,0,0-1.285-1.152,3.924,3.924,0,0,0-1.916-.466,3.981,3.981,0,0,0-1.71.343,3.539,3.539,0,0,0-1.209.907,3.683,3.683,0,0,0-.708,1.287,4.972,4.972,0,0,0-.229,1.507,4.442,4.442,0,0,0,.12,1.053,4.2,4.2,0,0,0,.316.883h-1.2c-.145,0-.218.089-.218.27v1.887Q581.79,345.046,582.008,345.046Z" transform="translate(-491.63 -328.379)"/><path class="a" d="M.4,0H2.652a.4.4,0,0,1,.4.4V16.266a.4.4,0,0,1-.4.4H.4a.4.4,0,0,1-.4-.4V.4A.4.4,0,0,1,.4,0Z" transform="translate(100.308)"/><path class="a" d="M608.767,348.6h1a3.748,3.748,0,0,0,3.267-1.336,7.135,7.135,0,0,0,.958-4.129v-.392a1.713,1.713,0,0,0,.893.674,4.268,4.268,0,0,0,1.241.159c.011,0,.02,0,.031,0s.021,0,.034,0h1.742a5.652,5.652,0,0,0,1.829-.233,1.833,1.833,0,0,0,1.024-.993,1.959,1.959,0,0,0,1.024,1,4.059,4.059,0,0,0,1.145.2.948.948,0,0,0,.2.021h6.62a5.682,5.682,0,0,0,1.557-.2,2.326,2.326,0,0,0,1.154-.748,3.788,3.788,0,0,0,.719-1.507,10.182,10.182,0,0,0,.251-2.5,8.9,8.9,0,0,0-.272-2.23,5,5,0,0,0-.883-1.838,4.323,4.323,0,0,0-1.589-1.25,5.5,5.5,0,0,0-2.374-.466,4.879,4.879,0,0,0-2.461.564,7.242,7.242,0,0,0-1.743,1.4q-.13.147.066.368l1.284,1.74a.188.188,0,0,0,.305-.025,4.486,4.486,0,0,1,1-.772,2.488,2.488,0,0,1,1.241-.306,2.178,2.178,0,0,1,1.056.233,1.969,1.969,0,0,1,.686.613,2.469,2.469,0,0,1,.37.857,4.473,4.473,0,0,1,.109.993,5.817,5.817,0,0,1-.076,1.042,1.546,1.546,0,0,1-.261.65.9.9,0,0,1-.512.33,3.419,3.419,0,0,1-.849.086h-5.815a1.8,1.8,0,0,1-1.187-.355,1.326,1.326,0,0,1-.468-.968V333.5c0-.162-.073-.245-.218-.245h-2c-.16,0-.345.009-.555.025s-.316.09-.316.22v5.148a4.344,4.344,0,0,1-.185,1.532q-.185.429-.86.429h-.719a.347.347,0,0,0-.035.008c-.025,0-.047-.008-.073-.008h-.479a1.8,1.8,0,0,1-1.187-.355,1.326,1.326,0,0,1-.468-.968V333.5c0-.162-.073-.245-.218-.245h-2.657c-.145,0-.218.082-.218.245v8.971q0,.76-.044,1.348a3.325,3.325,0,0,1-.207.992,1.256,1.256,0,0,1-.49.613,1.7,1.7,0,0,1-.915.209h-.479q-.218,0-.218.245v2.475C608.549,348.516,608.622,348.6,608.767,348.6Z" transform="translate(-503.821 -326.908)"/><path class="a" d="M.4,0H2.736a.4.4,0,0,1,.4.4V2.492a.4.4,0,0,1-.4.4H.4a.4.4,0,0,1-.4-.4V.4A.4.4,0,0,1,.4,0Z" transform="translate(114.136 18.775)"/><path class="a" d="M.4,0H2.736a.4.4,0,0,1,.4.4V2.493a.4.4,0,0,1-.4.4H.4a.4.4,0,0,1-.4-.4V.4A.4.4,0,0,1,.4,0Z" transform="translate(122.957 1.005)"/></g><g transform="translate(413.936 349.574)"><path class="a" d="M413.936,387.959h2.22v-5.414h4.432V380.57h-4.432v-3.934h5.252v-1.967h-7.472Z" transform="translate(-413.936 -374.522)"/><path class="a" d="M438.144,382.628a4.8,4.8,0,0,1-.184,1.379,3.035,3.035,0,0,1-.532,1.048,2.4,2.4,0,0,1-.852.672,2.859,2.859,0,0,1-2.286,0,2.353,2.353,0,0,1-.848-.676,3.135,3.135,0,0,1-.528-1.052,4.8,4.8,0,0,1-.184-1.379v-7.951h-2.2v7.96a6.811,6.811,0,0,0,.34,2.192,5.1,5.1,0,0,0,.975,1.737,4.418,4.418,0,0,0,1.544,1.14,5.329,5.329,0,0,0,4.1,0,4.46,4.46,0,0,0,1.548-1.14,5.07,5.07,0,0,0,.979-1.737,6.811,6.811,0,0,0,.34-2.192v-7.96h-2.2Z" transform="translate(-421.464 -374.522)"/><path class="a" d="M450.79,376.7h3.58v11.259h2.2V376.7h3.564v-2.031H450.79Z" transform="translate(-430.661 -374.522)"/><path class="a" d="M477.834,382.628a4.8,4.8,0,0,1-.185,1.379,3.036,3.036,0,0,1-.533,1.048,2.4,2.4,0,0,1-.852.672,2.859,2.859,0,0,1-2.286,0,2.351,2.351,0,0,1-.848-.676A3.135,3.135,0,0,1,472.6,384a4.8,4.8,0,0,1-.184-1.379v-7.951h-2.2v7.96a6.811,6.811,0,0,0,.34,2.192,5.1,5.1,0,0,0,.975,1.737,4.419,4.419,0,0,0,1.545,1.14,5.329,5.329,0,0,0,4.1,0,4.459,4.459,0,0,0,1.548-1.14,5.068,5.068,0,0,0,.979-1.737,6.811,6.811,0,0,0,.34-2.192v-7.96h-2.2Z" transform="translate(-439.477 -374.522)"/><path class="a" d="M498.007,382.288a4.1,4.1,0,0,0,1.11-.588,3.631,3.631,0,0,0,.819-.855,3.842,3.842,0,0,0,.508-1.085,4.716,4.716,0,0,0-.082-2.817,3.027,3.027,0,0,0-.811-1.208,3.809,3.809,0,0,0-1.417-.786,6.79,6.79,0,0,0-2.076-.281h-3.613v13.291h2.2v-5.192h.943a.97.97,0,0,1,.5.1.934.934,0,0,1,.307.339l2.491,4.256a1.05,1.05,0,0,0,.34.367.884.884,0,0,0,.488.129h1.982l-2.965-4.907A2.314,2.314,0,0,0,498.007,382.288Zm-.9-1.471a3.071,3.071,0,0,1-1.085.175h-1.377V376.58h1.41a2.617,2.617,0,0,1,1.814.542,2,2,0,0,1,.594,1.553,2.819,2.819,0,0,1-.147.929,1.962,1.962,0,0,1-.447.731A2.06,2.06,0,0,1,497.11,380.817Z" transform="translate(-449.565 -374.522)"/><path class="a" d="M511.96,387.959h7.472v-1.976H514.18v-3.76h4.137v-1.9H514.18v-3.686h5.252v-1.967H511.96Z" transform="translate(-458.421 -374.522)"/><path class="a" d="M534.924,387.959H542.4v-1.976h-5.252v-3.76h4.137v-1.9h-4.137v-3.686H542.4v-1.967h-7.472Z" transform="translate(-468.843 -374.522)"/><path class="a" d="M560.911,374.668H558.8a.533.533,0,0,0-.467.341l-2.466,4.366c-.044.08-.082.158-.115.234s-.063.155-.09.235l-2.7-4.88a.592.592,0,0,0-.184-.225.611.611,0,0,0-.332-.07h-2.2l3.777,6.453-3.941,6.838h2.065a.441.441,0,0,0,.328-.133,1.418,1.418,0,0,0,.221-.29l2.63-4.706c.027-.055.055-.115.082-.179a1.96,1.96,0,0,0,.074-.207l2.745,5.092a1.165,1.165,0,0,0,.226.294.5.5,0,0,0,.356.129h2.2l-3.924-6.939Z" transform="translate(-475.726 -374.522)"/><path class="a" d="M579.953,375.854a3.852,3.852,0,0,0-1.434-.873,6.078,6.078,0,0,0-2.056-.313H572.6v13.291h2.2v-4.678h1.655a5.73,5.73,0,0,0,2.015-.322,3.9,3.9,0,0,0,1.434-.9,3.7,3.7,0,0,0,.86-1.384,5.573,5.573,0,0,0,.016-3.479A3.452,3.452,0,0,0,579.953,375.854Zm-1.245,4.067a2.029,2.029,0,0,1-.442.771,1.929,1.929,0,0,1-.746.488,2.988,2.988,0,0,1-1.057.17h-1.655v-4.77h1.655a3.143,3.143,0,0,1,1.057.161,1.857,1.857,0,0,1,1.188,1.2,2.973,2.973,0,0,1,.147.964A3.286,3.286,0,0,1,578.707,379.922Z" transform="translate(-485.943 -374.522)"/><path class="a" d="M591.219,387.959h7.472v-1.976h-5.252v-3.76h4.137v-1.9h-4.137v-3.686h5.252v-1.967h-7.472Z" transform="translate(-494.391 -374.522)"/><path class="a" d="M614.091,382.288a4.1,4.1,0,0,0,1.11-.588,3.63,3.63,0,0,0,.819-.855,3.84,3.84,0,0,0,.508-1.085,4.716,4.716,0,0,0-.082-2.817,3.029,3.029,0,0,0-.811-1.208,3.809,3.809,0,0,0-1.417-.786,6.791,6.791,0,0,0-2.077-.281h-3.613v13.291h2.2v-5.192h.943a.969.969,0,0,1,.5.1.934.934,0,0,1,.307.339l2.491,4.256a1.05,1.05,0,0,0,.34.367.884.884,0,0,0,.487.129h1.983l-2.965-4.907A2.313,2.313,0,0,0,614.091,382.288Zm-.9-1.471a3.072,3.072,0,0,1-1.086.175h-1.376V376.58h1.41a2.617,2.617,0,0,1,1.814.542,2,2,0,0,1,.594,1.553,2.817,2.817,0,0,1-.148.929,1.962,1.962,0,0,1-.447.731A2.059,2.059,0,0,1,613.194,380.817Z" transform="translate(-502.247 -374.522)"/><path class="a" d="M625.374,376.7h3.58v11.259h2.2V376.7h3.564v-2.031h-9.348Z" transform="translate(-509.892 -374.522)"/><path class="a" d="M651.174,382.3a3.018,3.018,0,0,0-.619-.979,3.485,3.485,0,0,0-.877-.662,9.09,9.09,0,0,0-1-.46q-.512-.2-1-.372a5.394,5.394,0,0,1-.877-.4,2,2,0,0,1-.618-.533,1.268,1.268,0,0,1-.234-.781,1.924,1.924,0,0,1,.115-.676,1.378,1.378,0,0,1,.349-.528,1.631,1.631,0,0,1,.573-.344,2.328,2.328,0,0,1,.8-.124,2.466,2.466,0,0,1,.881.143,3.7,3.7,0,0,1,.651.317q.279.175.484.317a.665.665,0,0,0,.368.143.487.487,0,0,0,.283-.083.678.678,0,0,0,.209-.285l.541-1.168a4.319,4.319,0,0,0-1.507-1.029,4.99,4.99,0,0,0-1.933-.368,4,4,0,0,0-1.646.322,3.626,3.626,0,0,0-1.971,2.077,4.007,4.007,0,0,0-.258,1.415,4.372,4.372,0,0,0,.234,1.531,3.1,3.1,0,0,0,.618,1.034,3.268,3.268,0,0,0,.877.672,8.1,8.1,0,0,0,1,.441q.508.184,1,.34a4.371,4.371,0,0,1,.877.382,1.945,1.945,0,0,1,.619.556,1.452,1.452,0,0,1,.233.855,1.911,1.911,0,0,1-.516,1.437,2.006,2.006,0,0,1-1.458.5,2.656,2.656,0,0,1-1.052-.189,4.136,4.136,0,0,1-.762-.418q-.324-.23-.562-.418a.732.732,0,0,0-.442-.189.485.485,0,0,0-.282.088.854.854,0,0,0-.217.216l-.639,1.186a4.769,4.769,0,0,0,.783.717,5.278,5.278,0,0,0,.942.551,5.353,5.353,0,0,0,1.052.354,5,5,0,0,0,1.114.125,4.29,4.29,0,0,0,1.745-.336,3.753,3.753,0,0,0,1.291-.919,3.959,3.959,0,0,0,.8-1.37,5.072,5.072,0,0,0,.274-1.686A3.762,3.762,0,0,0,651.174,382.3Z" transform="translate(-518.074 -374.429)"/></g></g></svg>