<svg xmlns="http://www.w3.org/2000/svg" width="24" height="24" viewBox="0 0 24 24"><defs><style>.a{fill:none;}.b{fill:#2a2526;}</style></defs><g transform="translate(-985 -332)"><rect class="a" width="24" height="24" transform="translate(985 332)"/><g transform="translate(981.5 328.5)"><path class="b" d="M24.03,20.721A9.953,9.953,0,0,0,25.5,15.5h0a9.953,9.953,0,0,0-1.471-5.221l-.005-.009a10,10,0,0,0-17.048,0l-.006.009a10,10,0,0,0,0,10.441l.006.009a10,10,0,0,0,17.048,0Zm-7.251,3.065a2.43,2.43,0,0,1-.649.448,1.465,1.465,0,0,1-1.258,0,3.061,3.061,0,0,1-1.134-1,8.938,8.938,0,0,1-1.292-2.8q1.526-.094,3.055-.1t3.055.1a11.28,11.28,0,0,1-.548,1.508,5.8,5.8,0,0,1-1.229,1.844ZM6.643,16.062h4.033a19.844,19.844,0,0,0,.365,3.352q-1.654.146-3.3.4a8.816,8.816,0,0,1-1.1-3.751Zm1.1-4.875q1.645.255,3.3.4a19.809,19.809,0,0,0-.365,3.351H6.643a8.816,8.816,0,0,1,1.1-3.751Zm6.48-3.973a2.43,2.43,0,0,1,.649-.448,1.465,1.465,0,0,1,1.258,0,3.061,3.061,0,0,1,1.134,1,8.938,8.938,0,0,1,1.292,2.8q-1.526.094-3.055.1t-3.055-.1a11.279,11.279,0,0,1,.548-1.508,5.8,5.8,0,0,1,1.229-1.844Zm10.135,7.724H20.323a19.845,19.845,0,0,0-.365-3.352q1.654-.146,3.3-.4A8.816,8.816,0,0,1,24.357,14.938ZM12.171,19.326a18.583,18.583,0,0,1-.371-3.264h7.4a18.58,18.58,0,0,1-.37,3.264q-1.663-.109-3.329-.111T12.171,19.326Zm6.657-7.652a18.585,18.585,0,0,1,.371,3.264H11.8a18.579,18.579,0,0,1,.37-3.264q1.663.109,3.329.111t3.329-.111Zm1.494,4.388h4.034a8.816,8.816,0,0,1-1.1,3.751q-1.645-.255-3.3-.4A19.808,19.808,0,0,0,20.323,16.062Zm2.261-5.909q-1.438.207-2.885.329a12.813,12.813,0,0,0-.669-1.887,7.973,7.973,0,0,0-.93-1.583A8.875,8.875,0,0,1,22.584,10.153ZM9.223,9.223A8.873,8.873,0,0,1,12.9,7.012c-.021.027-.043.053-.063.081A10.257,10.257,0,0,0,11.3,10.481q-1.447-.123-2.887-.329A8.95,8.95,0,0,1,9.223,9.223ZM8.416,20.847q1.438-.208,2.885-.329a12.813,12.813,0,0,0,.669,1.887,7.974,7.974,0,0,0,.93,1.583,8.874,8.874,0,0,1-4.484-3.141Zm13.361.929A8.873,8.873,0,0,1,18.1,23.988c.021-.027.043-.053.063-.081A10.257,10.257,0,0,0,19.7,20.519q1.447.123,2.887.329a8.949,8.949,0,0,1-.808.929Z"/></g></g></svg>